{"title":"Drag Me to Hell 2009 DVDrip English Klam","uid":6651627,"size":1423425637,"categoryP":"video","categoryS":"movies","magnet":"?xt=urn:btih:95d1c29c9c66d0a2c7a4580aece8a7c0da4acc38&amp;dn=Drag+Me+to+Hell+2009+DVDrip+English+Klam&amp;tr=udp%3A%2F%2Ftracker.openbittorrent.com%3A80&amp;tr=udp%3A%2F%2Fopen.demonii.com%3A1337&amp;tr=udp%3A%2F%2Ftracker.coppersurfer.tk%3A6969&amp;tr=udp%3A%2F%2Fexodus.desync.com%3A6969","seeders":0,"leechers":0,"uploader":"Klambake","files":-1,"time":1315170613,"description":"With: Alison Lohman, Justin Long en Lorna Raver\n\nChristine Brown (Alison Lohman) is een ambitieuze bank-employee met een prima leventje. Op een dag echter verschijnt de mysterieuze vrouw Mrs. Ganush (Lorna Raver) aan het bankloket om voor de zoveelste keer uitstel van betaling te vragen. Moet Christine toegeven aan deze bedelaarsactie of de ambities van haar baas laten prevaleren? Christine kiest voor het laatste waardoor Mrs. Ganusch het huis uit wordt gezet. Omgekeerd plaatst de oude vrouw de machtige vloek van de Lamia op Christine, en transformeert haar leven in een hel. Noodgedwongen zoekt zij de hulp van helderziende Rham Jas (Dileep Rao) om haar ziel van eeuwige verdoemenis te redden.\n\nA loan officer who evicts an old woman from her home finds herself the recipient of a supernatural curse. Desperate, she turns to a seer to try and save her soul, while evil forces work to push her to a breaking point. \n\n------------------ Dutch Friends ------------------\nYou can find my Friends at: http://www.Film-Test.nl \n------ They got my dutchs subs ---- and more ------\n\nGeneral:\n\nComplete name                    : Drag Me to Hell\\Drag Me to Hell.avi\nFormat                           : AVI\nFormat/Info                      : Audio Video Interleave\nFile size                        : 1.32 GiB\nDuration                         : 1h 34mn\nOverall bit rate                 : 1 996 Kbps\n\nVideo:\n\nFormat                           : MPEG-4 Visual\nFormat profile                   : Simple@L3\nFormat settings, BVOP            : No\nFormat settings, QPel            : No\nFormat settings, GMC             : No warppoints\nFormat settings, Matrix          : Default (H.263)\nCodec ID                         : XVID\nCodec ID/Hint                    : XviD\nDuration                         : 1h 34mn\nBit rate                         : 1 601 Kbps\nWidth                            : 720 pixels\nHeight                           : 304 pixels\nDisplay aspect ratio             : 2.35:1\nFrame rate                       : 25.000 fps\nColor space                      : YUV\nChroma subsampling               : 4:2:0\nBit depth                        : 8 bits\nScan type                        : Progressive\nBits/(Pixel*Frame)               : 0.293\nStream size                      : 1.06 GiB (80%)\nWriting library                  : XviD 1.1.2 (UTC 2006-11-01)\n\nAudio:\n\nFormat                           : AC-3\nFormat/Info                      : Audio Coding 3\nMode extension                   : CM (complete main)\nCodec ID                         : 2000\nDuration                         : 1h 34mn\nBit rate mode                    : Constant\nBit rate                         : 384 Kbps\nChannel(s)                       : 6 channels\nChannel positions                : Front: L C R, Side: L R, LFE\nSampling rate                    : 48.0 KHz\nBit depth                        : 16 bits\nStream size                      : 261 MiB (19%)\nAlignment                        : Aligned on interleaves\nInterleave, duration             : 32 ms (0.80 video frame)\nInterleave, preload duration     : 896 ms\n\n","torrent":{"xt":"urn:btih:95d1c29c9c66d0a2c7a4580aece8a7c0da4acc38","amp;dn":"Drag+Me+to+Hell+2009+DVDrip+English+Klam","amp;tr":["udp%3A%2F%2Ftracker.openbittorrent.com%3A80","udp%3A%2F%2Fopen.demonii.com%3A1337","udp%3A%2F%2Ftracker.coppersurfer.tk%3A6969","udp%3A%2F%2Fexodus.desync.com%3A6969"],"infoHash":"95d1c29c9c66d0a2c7a4580aece8a7c0da4acc38","infoHashBuffer":{"type":"Buffer","data":[149,209,194,156,156,102,208,162,199,164,88,10,236,232,167,192,218,74,204,56]},"announce":[],"urlList":[]}}